<svg width="36" height="38" viewBox="0 0 36 38" fill="none" xmlns="http://www.w3.org/2000/svg">
<path fill-rule="evenodd" clip-rule="evenodd" d="M34.0946 28.5904C34.687 26.973 35.0381 25.2832 35.1396 23.5664C35.7143 13.8497 28.3126 5.47675 18.6263 4.87672C8.94002 4.2767 0.605587 11.6749 0.030885 21.3916C-0.198251 25.2657 0.852384 29.11 3.0227 32.3287L4.37719 31.4132C2.41236 28.4944 1.45784 25.0065 1.66566 21.4929C2.18688 12.6803 9.74436 5.9634 18.5354 6.50797C27.3265 7.05254 34.0375 14.6475 33.5159 23.4659C33.4239 25.0224 33.1042 26.559 32.571 28.0251L34.0946 28.5904Z" fill="black"/>
<path fill-rule="evenodd" clip-rule="evenodd" d="M2.98938 32.276C3.87294 33.4798 4.69714 34.1579 5.79862 34.9432C6.57471 35.4993 7.28866 35.8808 8.24093 36.3056C9.51549 36.866 13.062 37.8146 16.2519 37.3762C18.6826 37.0424 21.4141 35.6749 22.5832 34.2365C24.2964 32.1351 24.2923 30.708 23.5054 29.456C22.5949 28.007 19.7835 26.5799 18.444 25.2366C17.1263 23.9222 15.7461 22.7257 15.6194 20.85C15.5358 19.617 16.7981 19.1775 17.5855 18.663C18.9089 17.8014 20.3033 16.8394 19.3851 14.8992C19.2621 14.6319 19.0881 14.3712 18.8897 14.1402C18.3939 13.5625 17.8215 13.1614 17.1629 12.8376C17.1629 12.8376 16.609 12.6643 16.4379 13.0119C16.3098 13.2653 16.7707 13.399 16.7707 13.399C18.3583 14.0368 19.2528 15.9364 18.0037 17.0133C16.4941 18.3104 14.2609 18.612 14.3674 21.0963C14.3767 21.3769 14.4091 21.6572 14.4993 21.9367C15.3347 24.6034 17.9899 26.916 20.5832 28.5394C23.8765 30.6029 22.0275 32.5776 20.9202 33.746C19.7576 34.9679 17.0022 35.9615 13.5846 35.8709C11.8873 35.8254 10.3011 35.4918 8.82404 34.8582C7.98001 34.4962 6.56438 33.8851 4.90162 32.0317C4.42463 31.5006 4.02842 30.8571 3.66868 30.2248C3.22502 30.3483 1.9612 29.5244 1.95437 30.1445C1.94243 30.4371 2.52752 31.6569 2.98938 32.276Z" fill="black"/>
<path fill-rule="evenodd" clip-rule="evenodd" d="M33.2733 0.11245L34.2043 0.861997L27.8191 9.08452L26.8882 8.33498L33.2733 0.11245Z" fill="black"/>
<path fill-rule="evenodd" clip-rule="evenodd" d="M30.4339 3.87519L31.0811 4.86607L24.0044 7.17916L23.3572 6.18828L30.4339 3.87519Z" fill="black"/>
<path fill-rule="evenodd" clip-rule="evenodd" d="M30.2447 3.96116L31.3506 4.36639L30.8507 12.2829L29.7448 11.8777L30.2447 3.96116Z" fill="black"/>
<path fill-rule="evenodd" clip-rule="evenodd" d="M33.2238 0.0330105L33.8132 0.996709L16.3593 5.8121L15.7699 4.8484L33.2238 0.0330105Z" fill="black"/>
<path fill-rule="evenodd" clip-rule="evenodd" d="M33.3013 0.55728L34.3473 0.900916L34.1102 18.4699L33.0642 18.1263L33.3013 0.55728Z" fill="black"/>
<path fill-rule="evenodd" clip-rule="evenodd" d="M32.9077 0.246993C33.0969 -0.0505232 33.5551 -0.0849608 33.9336 0.17475C34.3122 0.434461 34.4637 0.882224 34.2723 1.18316L32.9077 0.246993Z" fill="black"/>
<path fill-rule="evenodd" clip-rule="evenodd" d="M33.2733 0.11245L34.2043 0.861997L27.8191 9.08452L26.8882 8.33498L33.2733 0.11245Z" fill="black"/>
<path fill-rule="evenodd" clip-rule="evenodd" d="M30.4339 3.87519L31.0811 4.86607L24.0044 7.17916L23.3572 6.18828L30.4339 3.87519Z" fill="black"/>
<path fill-rule="evenodd" clip-rule="evenodd" d="M30.2447 3.96116L31.3506 4.36639L30.8507 12.2829L29.7448 11.8777L30.2447 3.96116Z" fill="black"/>
<path fill-rule="evenodd" clip-rule="evenodd" d="M33.2238 0.0330105L33.8132 0.996709L16.3593 5.8121L15.7699 4.8484L33.2238 0.0330105Z" fill="black"/>
<path fill-rule="evenodd" clip-rule="evenodd" d="M33.336 0.571204L34.3522 0.905032L34.3375 1.9942L33.3213 1.66037L33.336 0.571204Z" fill="black"/>
<path fill-rule="evenodd" clip-rule="evenodd" d="M32.9077 0.246993C33.0969 -0.0505232 33.5551 -0.0849608 33.9336 0.17475C34.3122 0.434461 34.4637 0.882224 34.2723 1.18316L32.9077 0.246993Z" fill="black"/>
<path fill-rule="evenodd" clip-rule="evenodd" d="M1.88634 0.161851L0.955401 0.911398L7.34055 9.13391L8.27149 8.38436L1.88634 0.161851Z" fill="black"/>
<path fill-rule="evenodd" clip-rule="evenodd" d="M4.72373 3.92013L4.07312 4.91626L11.1531 7.23045L11.8037 6.23431L4.72373 3.92013Z" fill="black"/>
<path fill-rule="evenodd" clip-rule="evenodd" d="M4.91006 4.01299L3.80997 4.41609L4.30989 12.3326L5.40998 11.9295L4.91006 4.01299Z" fill="black"/>
<path fill-rule="evenodd" clip-rule="evenodd" d="M1.92883 0.0809606L1.33946 1.04468L18.7934 5.86007L19.3828 4.89635L1.92883 0.0809606Z" fill="black"/>
<path fill-rule="evenodd" clip-rule="evenodd" d="M1.87269 0.607344L0.806884 0.957464L1.04711 18.7571L2.11291 18.4069L1.87269 0.607344Z" fill="black"/>
<path fill-rule="evenodd" clip-rule="evenodd" d="M2.25027 0.29782C2.06105 0.000303894 1.6029 -0.0341504 1.22434 0.22556C0.845786 0.485271 0.694318 0.933051 0.885706 1.23399L2.25027 0.29782Z" fill="black"/>
<path fill-rule="evenodd" clip-rule="evenodd" d="M32.5726 27.9875C32.4463 28.3432 32.6844 28.7604 33.1095 28.9185C33.5347 29.0767 33.9775 28.9174 34.1052 28.5576L32.5726 27.9875Z" fill="black"/>
</svg>
